<svg width="408" height="386" viewBox="0 0 408 386" fill="none" xmlns="http://www.w3.org/2000/svg">
<ellipse cx="204" cy="193" rx="204" ry="193" fill="#515152"/>
<g filter="url(#filter0_d_13_7)">
<path d="M188.25 123C190.583 123 193.417 124.583 196.75 127.75C200.25 130.75 202 133.333 202 135.5C202 145.667 201.667 159.583 201 177.25C200.833 181.583 200.667 186.833 200.5 193C200.333 199 200.25 206 200.25 214C200.25 239.333 201.75 258 204.75 270C204.583 274 203 276.917 200 278.75C197 280.417 194 281.25 191 281.25C184.333 281.25 179.917 278.917 177.75 274.25C175.75 269.583 174.75 262.917 174.75 254.25C174.75 222.083 175.083 192.5 175.75 165.5C156.583 186.833 141.667 204.75 131 219.25C131 219.25 129.5 220.25 126.5 222.25C123.667 224.75 121.333 226 119.5 226C115.167 226 111.583 224.917 108.75 222.75C105.917 220.583 103.167 217.417 100.5 213.25L88.5 196.25C80.1667 184.583 74.0833 175.75 70.25 169.75C70.25 185.083 71 205.917 72.5 232.25C73.6667 247.417 74.25 258.833 74.25 266.5C74.25 270.5 73.25 273.917 71.25 276.75C69.25 279.417 66.0833 280.75 61.75 280.75C57.4167 280.75 53.8333 279.917 51 278.25C48.3333 276.583 46.9167 274.083 46.75 270.75C46.9167 267.917 47 263.25 47 256.75C47 243.75 46.5833 227.917 45.75 209.25L45.25 195.75L44.75 178.25C44.5833 173.083 44.4167 167.083 44.25 160.25C44.0833 153.25 44 145.667 44 137.5C44 127.5 49.4167 122.5 60.25 122.5C63.5833 122.5 66.9167 123.333 70.25 125C73.75 126.667 76.3333 129.083 78 132.25C79.3333 138.083 84.25 147.75 92.75 161.25C101.25 174.75 109.583 187.417 117.75 199.25C125.083 189.917 131.083 182.917 135.75 178.25C143.75 170.083 150.333 162.5 155.5 155.5C160.833 148.5 166.583 140.083 172.75 130.25C174.25 128.25 176.417 126.583 179.25 125.25C182.083 123.75 185.083 123 188.25 123Z" fill="#1C1C22"/>
<path d="M354.533 277.25C352.367 274.417 350.533 271.333 349.033 268C347.533 264.5 345.95 260.333 344.283 255.5C343.95 254.667 342.95 252.167 341.283 248C339.783 243.833 338.033 240.25 336.033 237.25C325.533 238.75 316.95 239.5 310.283 239.5C306.617 239.5 302.533 239.417 298.033 239.25C293.7 238.917 290.45 238.75 288.283 238.75C279.95 238.083 273.283 237.75 268.283 237.75C266.283 240.417 264.533 243.25 263.033 246.25C261.7 249.25 259.95 253.75 257.783 259.75C254.783 268.417 252.2 274.583 250.033 278.25C248.533 280.75 245.617 282 241.283 282C237.617 282 234.2 281.25 231.033 279.75C228.033 278.083 226.533 275.833 226.533 273C227.867 266.667 229.95 260 232.783 253C235.783 245.833 240.033 236.333 245.533 224.5L255.533 200C261.033 186 266.033 174 270.533 164C275.2 154 281.283 142.167 288.783 128.5C289.783 126.5 291.45 124.833 293.783 123.5C296.117 122 298.7 121.25 301.533 121.25C304.7 121.25 306.95 121.5 308.283 122C309.783 122.333 310.95 123 311.783 124C312.617 124.833 313.867 126.667 315.533 129.5C321.2 138.333 326.033 147.417 330.033 156.75C334.2 166.083 339.45 179 345.783 195.5L351.033 208.75C355.7 220.75 359.7 230.833 363.033 239C366.533 247 370.367 254.333 374.533 261C377.2 265.333 378.533 268.333 378.533 270C378.533 274 377.283 277.083 374.783 279.25C372.45 281.25 369.367 282.25 365.533 282.25C360.7 282.25 357.033 280.583 354.533 277.25ZM328.783 216.75C326.117 211.083 322.283 201.25 317.283 187.25C312.117 172.25 306.95 160.333 301.783 151.5C298.617 159.5 293.95 169.833 287.783 182.5C283.617 190.333 278.867 201.667 273.533 216.5C284.2 217.833 295.7 218.5 308.033 218.5C316.867 218.5 323.783 217.917 328.783 216.75Z" fill="#00FF99"/>
</g>
<defs>
<filter id="filter0_d_13_7" x="40" y="121.25" width="342.533" height="169" filterUnits="userSpaceOnUse" color-interpolation-filters="sRGB">
<feFlood flood-opacity="0" result="BackgroundImageFix"/>
<feColorMatrix in="SourceAlpha" type="matrix" values="0 0 0 0 0 0 0 0 0 0 0 0 0 0 0 0 0 0 127 0" result="hardAlpha"/>
<feOffset dy="4"/>
<feGaussianBlur stdDeviation="2"/>
<feComposite in2="hardAlpha" operator="out"/>
<feColorMatrix type="matrix" values="0 0 0 0 0 0 0 0 0 0 0 0 0 0 0 0 0 0 0.25 0"/>
<feBlend mode="normal" in2="BackgroundImageFix" result="effect1_dropShadow_13_7"/>
<feBlend mode="normal" in="SourceGraphic" in2="effect1_dropShadow_13_7" result="shape"/>
</filter>
</defs>
</svg>
